<?xml version="1.0" encoding="UTF-8"?><svg id="graphic_element" xmlns="http://www.w3.org/2000/svg" viewBox="0 0 1200 1200"><path d="M1031.87,448.75c-50.63,50.23-52.48,129.29-32.35,193.78,10.89,34.88,28.05,66.96,46.77,98.17,8.85,14.75,17.76,29.82,22.27,46.55,4.09,15.19,3.66,31.03-.18,46.22-17.08,67.62-82.97,102.87-146.15,117.3-35.82,8.18-72.16,8.47-108.58,4.94-36.37-3.52-72.58-10.5-109.15-11.8-28.78-1.02-54.22,11.51-73.35,32.57-19.35,21.3-31.44,47.52-48.79,70.22-33.64,44.01-87.34,74.79-143.43,74.69-58.6-.11-115.9-36.91-133.61-94.07-10.03-32.38-4.5-66.92-9.15-100.1-2.3-16.46-7.4-32.87-17.11-46.54-9.13-12.84-21.21-22.88-34.81-30.72-13.22-7.62-27.48-13.21-41.51-19.14-13.55-5.72-26.92-11.93-39.81-19.01-24.87-13.66-49.2-31.08-63.95-55.89-17.8-29.94-15.95-65.4-4.61-97.34,9.83-27.66,26.05-52.5,40.11-78.09,13.84-25.2,25.84-51.82,27.96-80.85,2.29-31.41-8.63-61.46-24.49-88.08-15.62-26.23-35.46-49.99-48.26-77.86-12.33-26.83-14.28-56.73-6.07-85.04,8.09-27.89,25.59-53.63,49.37-70.48,28.47-20.18,61.99-27,96.38-23.58,33.93,3.38,66.64,15.3,98.67,26.33,30.34,10.44,61.37,22.16,94,20.88,15.07-.59,30.24-3.85,43.45-11.32,14.21-8.04,24.18-20.66,31.85-34.83,7.45-13.76,13.69-27.96,24.35-39.65,9.62-10.55,21.11-18.97,33.89-25.3,24.87-12.31,54.56-15.39,81.08-6.81,20.85,6.74,35.75,21.26,46.95,38.94,11.15,17.61,19.02,37.1,30.65,54.42,12.34,18.36,28.9,32.78,50.61,38.64,63.4,17.11,113.57-34.18,171.5-48,56.87-13.56,123.23,2.56,158.49,51.56,33.54,46.62,35.37,113.02,5.38,161.85-17.14,27.9-45.33,45.04-68.36,67.45-8.78,8.54,4.66,21.98,13.44,13.44,12.7-12.36,26.94-22.94,40.12-34.75,12.37-11.08,23.42-23.54,31.98-37.82,15.69-26.16,23.38-57.05,22.99-87.47-.39-30.4-8.76-61.14-25.35-86.74-17.47-26.95-43.02-47.16-72.76-58.99-28.88-11.49-61.05-14.21-91.72-10.2-32.07,4.19-59.92,18.3-88.6,32.39-26.07,12.8-55.15,25.87-84.93,20.55-11-1.97-20.19-5.52-29.1-12.3-6.6-5.02-13.32-13.14-18.13-20.47-11.66-17.75-19.61-37.63-31.25-55.4-13.37-20.4-31.15-36.38-54.38-44.58-28.16-9.94-60.38-7.92-87.85,3.29-29.3,11.95-52.72,32.93-67.44,60.96-7.38,14.05-13.8,29.77-26.94,39.54-11.26,8.37-25.32,11.95-39.17,12.58-32.3,1.48-63.07-11.01-93.07-21.33-33.49-11.52-67.4-23-102.91-26.08-35.74-3.11-71.69,4.75-101.53,25.1-52.31,35.68-79.46,105.36-58.72,166.25,19.8,58.13,78.26,101.24,77.15,166.44-.48,28.2-12.65,54.15-26.01,78.4-14.65,26.6-30.98,52.4-41.35,81.1-12.47,34.53-14.2,73.19,2.71,106.52,13.75,27.11,38.02,47.44,63.63,62.94,13.13,7.95,26.91,14.78,40.93,21.01,14.06,6.25,28.5,11.65,42.26,18.56,13.2,6.63,25.84,14.76,35.15,26.44,10,12.55,14.81,28.45,16.79,44.16,4.3,34.1-1.08,69.11,9.87,102.32,10.02,30.4,30.08,56.49,55.83,75.28,50.22,36.65,116.66,38.26,172.2,13.42,27.03-12.09,51.54-30.4,71.21-52.5,19.48-21.88,32.03-48.38,49.79-71.49,7.8-10.15,16.87-19.79,27.87-26.5,11.39-6.95,24.22-10.1,37.53-9.95,18.65.21,37.48,2.88,55.96,5.18,18.21,2.26,36.39,4.79,54.66,6.58,37.84,3.71,75.62,3.18,112.86-5.15,33.72-7.54,67.31-19.78,95.69-39.84,28.18-19.92,50.48-47.21,62.04-79.94,5.55-15.72,8.34-32.95,6.73-49.61-1.76-18.23-8.44-35.1-17.06-51.12-8.58-15.95-18.57-31.09-27.22-47-8.71-16.04-16.58-32.56-22.89-49.7-12.16-33.02-18.63-67.87-15.6-103.09,2.83-32.85,14.41-63.56,38.03-87,8.7-8.63-4.74-22.07-13.44-13.44Z" style="fill:#000; stroke-width:0px;"/></svg>